<?xml version="1.0" standalone="no"?>
<!DOCTYPE svg PUBLIC "-//W3C//DTD SVG 20010904//EN"
 "http://www.w3.org/TR/2001/REC-SVG-20010904/DTD/svg10.dtd">
<svg version="1.0" xmlns="http://www.w3.org/2000/svg"
 width="993.000000pt" height="842.000000pt" viewBox="0 0 993.000000 842.000000"
 preserveAspectRatio="xMidYMid meet">
<metadata>
Created by potrace 1.16, written by Peter Selinger 2001-2019
</metadata>
<g transform="translate(0.000000,842.000000) scale(0.100000,-0.100000)"
fill="#000000" stroke="none">
<path d="M12 4218 l3 -4193 2 4188 3 4187 4915 0 4914 0 5 -512 c7 -642 7
-577 0 -878 -4 -218 -3 -258 10 -275 14 -18 15 67 16 813 0 709 -2 836 -14
848 -13 12 -684 14 -4935 14 l-4921 0 2 -4192z"/>
<path d="M4853 6498 c-58 -28 -46 -139 15 -153 40 -8 67 7 81 47 15 43 -2 96
-36 109 -29 11 -32 11 -60 -3z"/>
<path d="M9862 6147 c-19 -52 -16 -3558 3 -3607 11 -30 14 250 14 1803 1 1010
0 1837 -2 1837 -2 0 -8 -15 -15 -33z"/>
<path d="M5326 6161 c-14 -5 -16 -10 -8 -15 8 -5 12 -40 12 -105 l0 -98 47 -2
c65 -2 80 5 93 43 20 61 -20 114 -75 100 -24 -6 -25 -4 -25 40 0 47 -6 52 -44
37z"/>
<path d="M6710 6161 c-21 -6 -22 -8 -7 -14 11 -4 17 -17 17 -37 0 -27 -3 -30
-20 -25 -20 6 -59 -9 -72 -29 -4 -6 -8 -27 -8 -47 0 -53 22 -67 104 -68 65 0
68 1 52 18 -12 14 -16 39 -16 114 0 103 0 102 -50 88z"/>
<path d="M3425 6073 c-15 -43 -36 -90 -46 -105 l-20 -28 38 0 c32 0 34 2 20
13 -11 8 -15 20 -11 35 5 18 13 22 44 22 30 0 39 -4 43 -22 4 -12 1 -28 -5
-35 -8 -11 7 -13 79 -13 l89 0 -1 58 c0 50 2 57 20 57 16 0 21 -8 23 -43 2
-24 -2 -50 -9 -58 -10 -12 -5 -14 31 -14 36 0 41 2 31 14 -7 8 -11 34 -9 58 2
35 7 44 24 46 15 2 23 -4 28 -20 9 -37 7 -73 -6 -86 -9 -9 -2 -12 32 -12 34 0
41 3 32 12 -7 7 -12 33 -12 59 0 56 -21 84 -54 74 -12 -4 -31 -7 -43 -6 -25 1
-57 2 -116 2 -35 0 -37 -2 -28 -20 14 -25 14 -98 1 -106 -28 -17 -49 8 -82
100 -42 121 -55 123 -93 18z"/>
<path d="M4023 6133 c-33 -95 -67 -169 -81 -180 -15 -11 -12 -12 21 -13 34 0
36 2 26 19 -19 29 -4 51 34 51 26 0 36 -6 45 -25 9 -20 8 -26 -6 -34 -13 -8
-4 -10 37 -11 51 0 53 1 39 18 -9 9 -27 49 -41 87 -38 104 -38 105 -53 105 -8
0 -17 -8 -21 -17z"/>
<path d="M5909 6123 c-6 -16 -20 -53 -31 -83 -11 -30 -30 -65 -41 -77 l-20
-23 36 0 c34 0 36 2 26 19 -19 30 -4 51 35 51 30 0 37 -4 42 -26 4 -17 2 -29
-7 -35 -9 -6 5 -9 40 -9 51 0 53 1 38 18 -8 9 -30 56 -47 105 -34 92 -52 108
-71 60z"/>
<path d="M4520 6083 c-51 -19 -68 -85 -30 -123 26 -26 91 -27 112 -2 40 45 29
103 -23 121 -35 12 -37 12 -59 4z"/>
<path d="M4926 6083 c-3 -4 -23 -6 -44 -5 l-37 3 3 -62 c3 -44 0 -64 -10 -70
-8 -6 1 -9 27 -9 l40 0 0 57 c0 53 2 58 23 61 23 4 24 2 20 -57 l-3 -61 40 1
c22 0 34 3 28 6 -8 3 -13 23 -13 52 0 26 -7 56 -16 69 -15 21 -44 29 -58 15z"/>
<path d="M2313 4689 c-82 -24 -134 -125 -147 -284 -10 -111 -24 -173 -53 -223
-55 -96 -173 -119 -248 -47 -28 25 -35 40 -35 69 0 30 5 38 26 46 32 13 30 53
-3 58 -33 5 -57 -37 -48 -87 20 -121 139 -174 260 -117 99 45 126 104 150 318
22 200 52 258 136 258 46 0 64 -25 56 -76 -4 -23 -2 -34 7 -34 39 0 48 65 13
98 -28 26 -71 34 -114 21z"/>
<path d="M4363 4685 c-129 -29 -265 -119 -318 -210 -63 -107 -32 -225 60 -225
77 0 157 101 154 194 -1 25 -4 22 -14 -21 -25 -103 -89 -170 -150 -159 -41 8
-55 31 -55 90 0 164 207 328 413 328 32 0 60 -2 63 -5 2 -2 -26 -35 -63 -74
-46 -46 -103 -126 -173 -238 -57 -93 -124 -189 -147 -214 -42 -44 -42 -44 -95
-37 -147 19 -167 20 -174 1 -11 -29 16 -37 106 -30 47 4 103 6 125 6 27 0 34
2 22 7 -15 7 -10 13 32 40 68 44 102 88 211 272 135 226 178 274 207 234 21
-28 16 -103 -11 -161 -37 -79 -106 -111 -106 -48 0 18 -5 25 -20 25 -31 0 -27
-47 5 -62 57 -26 163 43 185 121 12 43 -2 100 -30 126 -25 23 -25 29 3 44 15
8 16 10 2 5 -24 -9 -52 -9 -120 -1 -30 4 -75 1 -112 -8z"/>
<path d="M7105 4690 c-11 -5 -32 -9 -47 -9 -15 -1 -33 -7 -40 -14 -7 -6 -31
-24 -53 -38 -53 -34 -105 -103 -205 -274 -124 -210 -172 -261 -238 -253 -24 3
-27 7 -27 38 0 28 -4 35 -20 35 -27 0 -32 -40 -9 -66 12 -13 30 -19 61 -19 85
0 178 82 273 243 17 29 36 61 43 72 7 10 30 49 51 85 75 123 130 174 201 184
25 4 45 11 45 17 0 11 -8 11 -35 -1z"/>
<path d="M7225 4670 c-49 -23 -62 -35 -150 -134 -78 -88 -143 -135 -189 -137
-25 -1 -26 -3 -8 -6 46 -9 48 -42 8 -139 -40 -98 -44 -125 -20 -148 32 -32 75
-18 183 61 l23 17 -7 -32 c-15 -72 43 -82 123 -22 29 22 55 40 57 40 3 0 5
-11 5 -24 0 -83 110 -68 199 28 32 34 39 33 33 -4 -2 -18 2 -40 12 -55 22 -34
85 -34 144 0 l42 24 25 -25 c37 -37 92 -33 149 11 39 29 46 32 46 16 0 -25 32
-51 64 -51 30 0 88 28 128 62 34 29 117 127 129 153 6 11 0 7 -13 -10 -84
-111 -198 -203 -237 -190 -62 19 -9 167 87 244 49 38 76 38 80 -2 4 -32 34
-35 40 -4 10 50 -57 62 -127 22 -49 -29 -61 -31 -61 -11 0 18 -19 33 -53 41
l-29 8 26 -26 c29 -30 29 -50 -5 -123 -51 -109 -163 -186 -207 -142 -19 19
-15 48 8 48 14 0 20 7 20 24 0 13 7 29 16 37 9 7 29 33 46 58 17 25 45 61 62
80 17 18 24 32 16 29 -14 -4 -26 -19 -108 -132 -20 -28 -40 -46 -53 -46 -12 0
-28 -13 -40 -34 -23 -40 -98 -81 -129 -71 -26 8 -35 48 -21 94 10 33 16 39 64
54 73 23 137 70 137 101 0 40 -48 48 -108 17 -36 -18 -81 -63 -166 -166 -69
-83 -167 -130 -183 -89 -7 19 13 64 78 169 27 44 55 89 61 100 7 11 23 37 35
58 l23 37 -24 0 c-17 0 -31 -11 -47 -36 -12 -20 -31 -44 -42 -55 -12 -10 -18
-19 -14 -19 4 0 -11 -30 -34 -67 -64 -104 -166 -203 -209 -203 -31 0 17 103
113 241 23 31 21 39 -5 39 -17 0 -33 -16 -62 -61 -53 -81 -122 -157 -175 -191
-84 -53 -104 -31 -64 70 33 80 36 141 9 171 -15 16 -16 22 -5 25 8 2 32 10 54
17 39 12 118 84 237 217 26 28 56 52 66 52 26 0 46 -25 39 -50 -4 -15 0 -20
14 -20 14 0 19 7 19 30 0 51 -54 64 -125 30z"/>
<path d="M6799 4654 c-156 -28 -270 -92 -289 -162 -29 -109 79 -172 180 -106
43 28 61 69 51 114 -5 21 -7 18 -9 -14 -6 -69 -55 -116 -121 -116 -54 0 -78
68 -47 128 18 34 62 75 101 95 41 20 158 54 225 66 41 6 46 9 20 9 -19 0 -69
-6 -111 -14z"/>
<path d="M2655 4378 c-11 -6 -30 -20 -42 -31 -24 -21 -46 -16 -25 5 18 18 14
28 -10 28 -18 0 -31 -15 -58 -62 -65 -115 -202 -240 -231 -211 -13 13 8 56 86
178 30 47 55 87 55 91 0 3 -12 4 -26 2 -21 -2 -37 -21 -80 -92 -65 -107 -83
-158 -64 -181 21 -25 59 -17 113 22 39 29 49 33 43 18 -19 -47 -19 -55 3 -55
14 0 27 12 40 38 34 67 136 196 177 225 95 65 97 21 5 -135 -38 -64 -66 -119
-63 -122 17 -18 43 -2 63 37 53 106 184 247 230 247 35 0 27 -31 -31 -117 -41
-60 -60 -98 -60 -118 0 -78 69 -73 162 13 l26 24 7 -31 c9 -44 30 -61 74 -61
64 0 160 81 198 169 13 31 15 32 32 17 10 -9 30 -16 44 -16 15 0 27 -3 27 -7
0 -5 -18 -37 -40 -73 -44 -72 -49 -90 -22 -90 11 0 39 33 77 91 67 103 168
202 200 197 37 -5 27 -41 -35 -127 -33 -46 -60 -92 -60 -103 0 -67 61 -78 131
-24 44 34 85 81 128 146 l22 35 -28 -35 c-70 -88 -149 -160 -180 -166 -30 -6
-33 -4 -33 17 0 13 25 62 55 108 55 83 67 125 43 149 -22 22 -65 13 -113 -23
l-46 -35 16 30 c15 29 15 30 -9 30 -18 0 -32 -12 -55 -50 -33 -54 -66 -70
-106 -52 -16 8 -26 23 -31 47 -21 114 -166 73 -264 -75 -72 -109 -190 -189
-190 -129 0 11 25 56 55 101 60 88 73 122 58 147 -22 36 -85 22 -147 -33 -36
-32 -38 -32 -30 -1 12 47 -40 72 -91 43z m555 -13 c45 -54 -86 -271 -158 -263
-24 3 -27 8 -30 44 -4 57 30 127 91 187 50 49 76 57 97 32z"/>
<path d="M4642 4369 c-24 -12 -57 -40 -75 -61 -97 -121 -160 -175 -232 -198
-22 -7 -76 -17 -120 -21 l-80 -8 90 3 c98 4 172 29 231 79 18 15 35 27 38 27
3 0 6 -15 6 -33 0 -42 26 -67 69 -67 32 0 102 30 134 58 22 19 32 10 18 -16
-16 -30 -13 -42 9 -42 13 0 27 15 44 48 33 65 155 202 180 202 3 0 6 -11 6
-24 0 -54 64 -74 113 -36 29 23 30 23 51 -48 13 -47 14 -58 1 -88 -25 -62
-115 -57 -115 7 0 22 4 30 14 26 15 -6 36 11 36 29 0 33 -63 21 -75 -15 -7
-23 10 -70 33 -87 28 -22 150 -15 136 7 -3 5 2 19 10 31 21 30 20 52 -6 125
-18 51 -20 65 -10 87 21 47 80 23 70 -29 -6 -28 12 -34 32 -10 33 40 -23 85
-86 70 -30 -8 -43 -18 -55 -44 -30 -63 -88 -90 -109 -50 -9 16 -7 28 9 60 l21
39 -22 0 c-11 0 -50 -26 -86 -57 -64 -56 -69 -51 -20 20 l19 27 -26 0 c-21 0
-33 -11 -63 -62 -20 -34 -59 -86 -86 -115 -51 -55 -144 -110 -171 -99 -27 10
-38 49 -26 93 10 36 16 42 54 52 92 24 174 94 147 126 -17 21 -57 19 -108 -6z"/>
<path d="M5430 4368 c-27 -14 -60 -44 -85 -77 -22 -29 -66 -81 -98 -113 -59
-60 -59 -65 0 -22 17 13 33 24 35 24 2 0 5 -12 6 -27 9 -107 155 -72 242 59
22 33 40 65 40 71 0 5 8 3 18 -6 9 -8 31 -17 49 -19 l32 -3 -44 -70 c-49 -77
-54 -95 -27 -95 12 0 36 27 68 78 26 42 79 107 116 145 71 71 78 88 14 35
l-38 -31 16 31 c16 31 16 32 -7 32 -17 0 -32 -14 -57 -52 -36 -54 -54 -64 -95
-54 -18 5 -28 18 -36 47 -22 71 -70 86 -149 47z m96 -13 c21 -84 -98 -263
-168 -253 -19 2 -23 10 -26 46 -4 53 35 129 96 189 52 51 88 57 98 18z"/>
<path d="M5878 4383 c36 -7 27 -44 -33 -126 -62 -85 -76 -125 -50 -150 41 -41
119 -2 200 100 25 32 51 67 56 78 6 11 -2 4 -17 -15 -15 -19 -58 -65 -94 -102
-49 -50 -74 -68 -93 -68 -39 0 -35 33 14 105 22 33 49 77 59 97 28 53 12 89
-40 86 -23 -1 -24 -1 -2 -5z"/>
<path d="M9861 1962 c-9 -21 -10 -99 -7 -278 3 -137 6 -276 6 -309 -1 -33 -3
-349 -6 -703 -4 -571 -3 -642 11 -642 13 0 15 107 15 980 0 539 -2 980 -4 980
-2 0 -9 -13 -15 -28z"/>
</g>
</svg>
