<svg
   xmlns:dc="http://purl.org/dc/elements/1.1/"
   xmlns:cc="http://creativecommons.org/ns#"
   xmlns:rdf="http://www.w3.org/1999/02/22-rdf-syntax-ns#"
   xmlns:svg="http://www.w3.org/2000/svg"
   xmlns="http://www.w3.org/2000/svg"
   xmlns:sodipodi="http://sodipodi.sourceforge.net/DTD/sodipodi-0.dtd"
   sodipodi:docname="frame.svg"
   height="100%"
   width="100%"
   viewBox="0 0 1885 1080"
   version="1.1"
   id="svg">
  <metadata
     id="metadata17">
    <rdf:RDF>
      <cc:Work
         rdf:about="">
        <dc:format>image/svg+xml</dc:format>
        <dc:type
           rdf:resource="http://purl.org/dc/dcmitype/StillImage" />
      </cc:Work>
    </rdf:RDF>
  </metadata>
  <defs
     id="defs15" />
  <sodipodi:namedview
     inkscape:current-layer="svgg"
     inkscape:window-maximized="0"
     inkscape:window-y="0"
     inkscape:window-x="0"
     inkscape:cy="650.05917"
     inkscape:cx="1106.6852"
     inkscape:zoom="0.64456233"
     inkscape:snap-object-midpoints="false"
     showgrid="false"
     id="namedview13"
     inkscape:window-height="1080"
     inkscape:window-width="1920"
     inkscape:pageshadow="2"
     inkscape:pageopacity="0"
     guidetolerance="10"
     gridtolerance="10"
     objecttolerance="10"
     borderopacity="1"
     bordercolor="#666666"
     pagecolor="#ffffff" />
  <g
     id="svgg">
    <path
       style="stroke-width:4.19052"
       fill-rule="evenodd"
       fill="#04acdc"
       stroke="none"
       d="m 1601.1029,-36.104548 c -4.3681,0.560514 -9.9394,1.554856 -12.3864,2.207522 -2.4427,0.652655 -5.8868,1.424325 -7.6571,1.716093 -1.7655,0.287936 -5.8914,1.558699 -9.1755,2.825619 -3.2794,1.263088 -6.7878,2.572241 -7.7986,2.913926 -2.7948,0.936749 -7.7028,2.737321 -13.4753,4.940989 -2.8679,1.094167 -5.5116,1.992526 -5.8731,1.992526 -0.3566,0 -2.7579,0.829262 -5.3332,1.842793 -2.5751,1.013542 -9.1619,3.612646 -14.6369,5.774093 -5.4751,2.1652778 -10.3556,3.9351308 -10.8451,3.9351308 -0.4894,0 -2.6163,0.829262 -4.7248,1.838962 -2.1087,1.013531 -5.3837,2.253576 -7.2728,2.75651 -1.8936,0.502934 -3.4443,1.2323709 -3.4443,1.6239643 0,0.3915934 -0.6953,0.7102474 -1.5459,0.7102474 -0.8463,0 -3.2203,0.67568693 -5.274,1.50110633 -3.5358,1.42048167 -8.6998,3.27095987 -9.6969,3.46675657 -0.2517,0.0537 -1.3859,0.5259665 -2.5202,1.0557646 -1.1344,0.5298091 -2.0676,0.733279 -2.0676,0.4568587 0,-0.280252 -0.5123,-0.1765958 -1.1436,0.230356 -0.6311,0.4031093 -4.0387,1.5279817 -7.5699,2.499291 -3.5358,0.9674656 -6.9389,2.1076963 -7.57,2.5299953 -0.6313,0.426153 -1.1481,0.514451 -1.1481,0.19964 0,-0.318655 -0.5215,-0.211156 -1.1572,0.230356 -0.6359,0.4415 -4.2493,1.493421 -8.0275,2.334199 -3.7782,0.836936 -8.1097,1.931103 -9.6238,2.422509 -1.514,0.491407 -2.9594,0.852294 -3.2109,0.794702 -0.4255,-0.09213 -3.4899,0.502935 -11.9292,2.31118 -1.7655,0.380076 -4.6563,0.886842 -6.4219,1.128703 -1.77,0.241872 -6.7239,0.99051 -11.0143,1.666197 -4.2858,0.675687 -9.2441,1.328354 -11.0097,1.447357 -1.7655,0.11904 -5.6901,0.441512 -8.7181,0.717933 -3.0281,0.272577 -7.7759,0.641138 -10.5523,0.817734 -2.7718,0.176607 -8.9193,0.66034 -13.658,1.082639 -4.7387,0.418467 -8.8691,0.737121 -9.1756,0.706404 -4.1851,-0.414625 -9.4682,0.318654 -7.4419,1.032732 4.2539,1.497276 32.9559,2.20368 50.8862,1.251573 14.8518,-0.787029 23.7117,-1.405136 25.2715,-1.766011 0.7547,-0.176608 3.4396,-0.548999 5.9599,-0.82542 9.2991,-1.025058 10.0309,-1.124872 16.9789,-2.295821 1.2578,-0.211155 3.3253,-0.548999 4.5877,-0.748625 5.7268,-0.902214 19.4626,-3.758536 23.3961,-4.86805 1.5141,-0.426153 6.4678,-1.708432 11.0097,-2.848662 4.5421,-1.144062 8.6725,-2.353401 9.1756,-2.691245 0.5078,-0.337843 1.2304,-0.641139 1.6101,-0.671857 0.3796,-0.03067 2.1865,-0.579704 4.0115,-1.220842 1.8249,-0.64114 3.8056,-1.1632756 4.4002,-1.1632756 0.5945,0 1.5232,-0.3723913 2.0627,-0.8254074 0.5399,-0.453028 1.5508,-0.9175598 2.246,-1.0365745 1.8434,-0.3109808 4.6153,-1.3283543 16.4071,-6.0428285 14.0468,-5.6090142 18.9457,-7.4095742 29.3652,-10.7995492 5.5988,-1.8197608 8.9057,-2.8102598 9.4134,-2.8256178 0.1188,0 2.4608,-0.564358 5.2008,-1.243887 4.725,-1.178622 6.3488,-1.527982 10.6163,-2.268946 12.6197,-2.203669 27.9382,-2.37259 36.7021,-0.406952 4.0388,0.9022 7.817,1.731464 8.3979,1.83512 0.5762,0.107521 1.61,0.55284 2.2916,0.990498 0.6814,0.441511 2.5797,1.24773 4.2218,1.792886 1.6421,0.545168 2.9823,1.2976368 2.9823,1.6700398 0,0.372391 0.4208,0.675687 0.9332,0.675687 2.909,0 13.1228,11.3754228 14.7466,16.4239104 1.9897,6.1887188 1.9989,6.8490588 0.055,6.3307658 -0.9698,-0.257219 -3.3345,-0.637296 -5.2555,-0.844608 -1.9212,-0.203482 -5.5804,-0.902202 -8.1326,-1.54334 -2.5524,-0.644983 -7.5289,-1.493434 -11.0647,-1.8888698 -3.5311,-0.395436 -8.2791,-0.9713093 -10.5522,-1.282278 -18.0034,-2.4800889 -39.7622,1.1440734 -59.6409,9.9242238 -13.4935,5.966047 -15.2545,8.503728 -3.4672,4.99858 3.673,-1.094166 7.9177,-2.153773 9.4317,-2.357243 1.514,-0.203482 2.7536,-0.429984 2.7536,-0.506778 0,-0.07673 1.0338,-0.245703 2.2916,-0.376234 1.2624,-0.126689 5.5987,-0.656498 9.6374,-1.170936 14.9936,-1.915744 49.8891,-0.203482 55.5334,2.725792 0.4894,0.253389 1.7564,0.602749 2.8222,0.77167 8.7639,1.420495 14.6233,3.731662 15.3596,6.065873 0.4163,1.316826 0.4118,2.50696 -0.012,2.649006 -0.4162,0.142068 -0.7592,0.625797 -0.7592,1.074967 0,0.453027 -1.5507,2.407148 -3.4442,4.34593 -1.8892,1.938781 -3.3255,3.628007 -3.1927,3.750867 0.1371,0.126685 -0.5809,0.975138 -1.5964,1.888851 -1.0108,0.917559 -1.6695,1.808251 -1.4637,1.98101 0.5535,0.464531 9.6603,-3.47827 13.0727,-5.658915 1.6099,-1.025058 3.3618,-1.861984 3.9016,-1.861984 0.5398,0 0.9788,-0.337859 0.9788,-0.752481 0,-2.015557 6.6553,-3.842994 10.5523,-2.894734 1.5141,0.364725 3.1652,0.7448 3.6683,0.844629 0.5077,0.09604 2.5707,1.059605 4.5879,2.138396 5.0222,2.683571 11.4579,5.847035 14.2252,6.987272 1.2625,0.522122 6.3258,2.952313 11.2614,5.397854 4.9307,2.449388 9.1571,4.449583 9.395,4.449583 0.2332,0 1.2579,0.606578 2.2732,1.347543 2.9275,2.138407 24.032,11.747814 25.793,11.747814 0.3888,0 1.8663,0.36856 3.2887,0.821576 1.4181,0.453027 2.6759,0.825418 2.7948,0.821573 0.1139,-0.0033 1.5597,0.349374 3.211,0.779358 13.6581,3.574252 30.6689,2.280464 39.4556,-3.006053 18.5523,-11.152752 12.0159,-36.97492 -11.8055,-46.661113 -2.9595,-1.201653 -6.1201,-2.514636 -7.0258,-2.913915 -3.2522,-1.435841 -15.6478,-1.742979 -18.5842,-0.460701 -8.5353,3.723988 -12.2676,15.341272 -6.8063,21.180629 2.4106,2.579918 8.2195,6.676292 8.2378,5.812488 0.012,-0.349374 0.3568,-0.180451 0.7777,0.376229 1.9942,2.641343 16.1372,1.938782 20.3132,-1.013542 3.0234,-2.134571 11.2704,-3.128906 12.8349,-1.547179 4.9993,5.056172 -5.8184,16.612031 -21.5529,23.031097 -3.5267,1.443526 -17.5551,2.149933 -21.5621,1.094163 -5.4339,-1.435835 -13.5574,-5.420886 -18.1543,-8.903001 -1.8159,-1.37442 -4.9765,-3.455248 -7.0257,-4.618506 -2.0493,-1.167104 -3.9292,-2.303495 -4.1808,-2.530009 -0.2515,-0.230348 -2.5248,-1.773682 -5.0496,-3.428371 -2.5203,-1.658502 -5.4111,-3.643347 -6.422,-4.407344 -1.0063,-0.763985 -3.6911,-2.622135 -5.9645,-4.127086 -2.2688,-1.508797 -4.7478,-3.155783 -5.5026,-3.662554 -0.7593,-0.502936 -3.6501,-2.180647 -6.4266,-3.720144 -10.0308,-5.574456 -10.9867,-6.964232 -9.9896,-14.519695 1.0703,-8.0929343 0.2927,-18.1745632 -1.7473,-22.6087862 -9.4545,-20.5701978 -39.1537,-32.0799818 -71.9038,-27.8722718 m -1353.31094,6.59567 c -6.53172,1.205496 -12.36819,3.209538 -20.37276,6.991106 -13.43007,6.342282 -22.35858,23.8334837 -19.6965,38.579681 1.88452,10.438661 1.91653,10.384912 -12.60146,19.48371 -4.02059,2.518482 -11.4717,7.363502 -16.5626,10.764995 -5.09088,3.40534 -10.68037,7.117792 -12.4185,8.250349 -1.7427,1.132545 -5.41566,3.532024 -8.16008,5.332583 -12.25384,8.031512 -25.65576,11.05292 -36.29955,8.185085 -12.48713,-3.363097 -27.618037,-15.84803 -25.596308,-21.1192 2.062895,-5.390184 3.723269,-5.935337 8.978838,-2.940796 20.90792,11.909068 44.41847,-1.681545 33.4179,-19.310951 -10.47454,-16.7886289 -52.80267,1.270762 -55.345835,23.606972 -2.035447,17.909654 16.53972,28.970265 42.675755,25.415209 10.14522,-1.382101 14.84276,-2.556886 23.65235,-5.90847 2.66666,-1.013517 4.99941,-1.842785 5.18238,-1.842785 0.50313,0 12.03429,-5.877747 18.87704,-9.620923 3.27959,-1.792889 13.64893,-6.945033 23.03943,-11.452206 19.55858,-9.386729 20.94908,-9.670843 26.75811,-5.497661 2.0629,1.481898 4.263,2.695087 4.88507,2.695087 0.62665,0 1.27616,0.303278 1.44082,0.671837 0.4757,1.036585 10.94567,6.445955 11.53114,5.954534 0.41625,-0.353198 -4.51914,-8.077568 -9.26699,-14.488974 -0.89651,-1.213167 2.63921,-5.866223 3.7507,-4.933317 0.18755,0.157406 2.90452,-0.387751 6.03317,-1.220843 3.1332,-0.829262 6.88849,-1.643166 8.35219,-1.808245 1.46369,-0.168921 3.93824,-0.629623 5.50713,-1.028889 14.57747,-3.720146 40.0091,-3.973534 57.52766,-0.579716 3.23383,0.62578 7.73468,1.370575 10.00341,1.650839 2.27329,0.280251 6.54087,1.028889 9.48655,1.662354 10.09032,2.16912 4.50085,-1.823603 -11.01428,-7.870275 -24.19207,-9.421288 -47.90845,-10.9953451 -75.08737,-4.971705 -13.89592,3.079005 -15.14007,3.163461 -15.14007,1.04809 0,-6.3729995 12.69753,-20.2861032 21.57573,-23.6376872 2.01258,-0.760155 4.48257,-1.68923 5.49342,-2.069295 8.78214,-3.2786458 36.44135,-3.4898008 48.18291,-0.360888 0.92394,0.245704 2.43338,0.572031 3.35733,0.721764 8.46654,1.378261 24.35217,6.415232 40.16461,12.7344814 6.38536,2.5530404 11.7873,4.6415359 12.00228,4.6415359 0.2104,0 2.56603,0.8330925 5.22811,1.8581509 9.92567,3.808444 39.62946,12.703766 46.59114,13.951495 0.25157,0.04606 2.10863,0.483734 4.13035,0.97131 4.5466,1.094154 23.67522,4.511005 29.03141,5.182861 2.17724,0.272578 4.17609,0.602748 4.43681,0.729437 0.26531,0.13053 2.95941,0.460697 5.98742,0.729438 3.02802,0.272577 6.5363,0.641137 7.79873,0.825422 9.29445,1.359059 40.67691,2.004041 53.21891,1.097998 4.28587,-0.31097 11.07832,-0.779348 15.08517,-1.040408 7.82618,-0.506782 8.36591,-0.648828 7.40994,-1.946464 -0.40252,-0.548998 -4.24013,-0.798544 -10.87249,-0.706403 -5.6352,0.07673 -13.96452,-0.09976 -18.50654,-0.391594 -4.54202,-0.291768 -10.9411,-0.702562 -14.22068,-0.91756 C 482.8804,27.6216 450.54654,22.204551 435.48423,18.192638 418.82102,13.75073 406.56718,10.080502 399.98057,7.5543369 c -2.36935,-0.906043 -4.58318,-1.6469963 -4.91709,-1.6469963 -0.67237,0 -7.39164,-2.6067887 -23.35046,-9.0488958 C 359.7836,-7.9558562 339.6121,-15.987367 335.4726,-17.572941 307.32398,-28.334099 269.3732,-33.497759 247.78833,-29.508878 M 1801.405,74.513048 c -15.7118,4.046476 -21.7358,14.776924 -21.5894,38.441472 0.087,13.80561 0.1966,14.28934 6.9616,31.19314 2.0355,5.08305 3.792,9.58638 3.9017,10.01252 0.1049,0.42231 0.7455,2.32653 1.4226,4.23459 0.6723,1.90422 1.331,3.81228 1.4637,4.2346 0.1326,0.4223 1.0703,3.37077 2.0811,6.54576 1.0155,3.17881 1.9715,7.10243 2.1315,8.72639 l 0.2882,2.94847 -8.3934,3.73166 c -13.5437,6.01597 -20.8163,12.15093 -25.7976,21.75266 -1.363,2.62982 -1.6238,2.65286 5.9005,-0.54516 11.8195,-5.02162 25.8343,-7.02566 29.8777,-4.27683 2.9182,1.98486 2.8222,23.65689 -0.1509,34.84419 -0.485,1.80825 -1.1024,4.36512 -1.3768,5.68578 -1.5827,7.57083 -6.3671,17.76762 -16.6494,35.46229 -3.2385,5.57829 -5.8914,10.35805 -5.8914,10.62294 0,4.21924 30.0285,-28.20627 30.9981,-33.46592 0.037,-0.21115 0.549,-1.42432 1.1344,-2.69508 5.3013,-11.49827 7.7805,-24.00625 7.5061,-37.88479 -0.1139,-5.84703 0.022,-6.34997 1.8707,-6.84138 1.1618,-0.31098 2.1315,-0.18427 2.3235,0.29946 0.1831,0.45686 2.0172,3.01372 4.0802,5.68578 10.104,13.07617 12.3544,25.72618 8.1554,45.84721 -2.6758,12.81894 -5.0313,18.25902 -16.407,37.94621 -7.8217,13.54071 -13.0543,22.9428 -13.0543,23.46875 0,0.19965 -1.0611,2.31501 -2.3648,4.70298 -6.6963,12.28914 -19.5357,45.85487 -20.9308,54.731 -0.1921,1.20934 -0.9788,4.62618 -1.7473,7.59001 -1.2944,4.98707 -1.9439,8.75712 -4.1852,24.25963 -0.8598,5.93533 -0.7364,42.29598 0.151,45.05249 0.2698,0.84846 0.5304,1.71227 0.5809,1.92726 0.5168,2.36492 1.8067,-3.31319 1.8295,-8.0699 0.019,-3.39765 0.2151,-7.04486 0.4391,-8.10447 0.2196,-1.0596 0.6542,-4.34975 0.956,-7.31742 1.3814,-13.53686 6.3853,-35.20506 10.9823,-47.55562 1.2214,-3.28248 2.0904,-5.9699 1.9348,-5.9699 -0.1601,0 1.1436,-3.37845 2.9,-7.50555 1.7518,-4.13093 3.3984,-8.20428 3.6591,-9.05272 0.2654,-0.84462 1.2076,-2.92544 2.0996,-4.61851 0.8919,-1.69306 1.9348,-3.94665 2.3099,-5.00625 0.3796,-1.05962 1.7151,-3.83148 2.9638,-6.16185 1.2488,-2.33036 2.9046,-5.44777 3.673,-6.92968 0.7731,-1.48191 8.5307,-14.82683 17.2442,-29.6498 19.3755,-32.96684 26.2824,-45.82417 24.6082,-45.82417 -0.2925,0 -0.1188,-0.43383 0.3889,-0.96362 0.8919,-0.93676 3.2156,-8.22348 4.359,-13.67124 2.9824,-14.18567 2.653,-29.83409 -0.8599,-41.20181 -1.3264,-4.29219 -1.7884,-5.49768 -2.3739,-6.16186 -0.3705,-0.4223 -0.9743,-1.58172 -1.3356,-2.57607 -2.5203,-6.87976 -19.7735,-19.37238 -26.7627,-19.37238 -2.6164,0 -9.0932,-2.97534 -11.586,-5.32491 -1.3859,-1.30531 -2.3007,-2.37643 -2.0355,-2.37643 0.2699,0 -0.1555,-0.82158 -0.9422,-1.82745 -0.7821,-1.00969 -1.601,-2.48009 -1.8113,-3.27479 -0.3385,-1.28228 -9.1253,-18.70053 -11.2751,-22.35541 -2.4653,-4.19236 -9.3401,-17.32226 -9.8157,-18.75044 -3.202,-9.57485 -3.179,-16.37015 0.068,-23.66839 5.8273,-13.087686 20.6837,-21.921581 32.5671,-19.364706 l 4.3727,0.940591 -2.1406,3.524343 c -1.1755,1.93877 -3.2476,4.392004 -4.6015,5.451609 -13.5711,10.607583 -4.4642,32.056953 12.9446,30.486743 12.1623,-1.098 15.2634,-4.03496 15.7758,-14.93048 1.1664,-24.820143 -19.8239,-42.983199 -42.8267,-37.055542 M 65.988255,77.83392 c -19.741542,4.47646 -33.143462,27.52674 -25.792997,44.36529 4.715842,10.79571 25.820434,11.44453 31.057702,0.95212 2.835916,-5.67811 3.22928,-14.84219 0.809615,-18.81188 -1.628353,-2.66822 -2.460821,-3.34006 -7.725537,-6.261657 -6.120071,-3.386132 -3.672968,-10.707417 3.393924,-10.154572 2.716978,0.211152 13.978253,4.925641 16.448231,6.883608 0.57176,0.453017 1.934822,1.339874 3.037165,1.977164 2.291593,1.320666 8.306455,7.924017 9.820453,10.780347 2.817603,5.3134 3.247569,6.98728 3.178949,12.36977 -0.0504,3.72782 -0.75471,7.471 -1.957678,10.40027 -1.033729,2.51465 -1.985135,4.91796 -2.117781,5.34027 -0.608343,2.00405 -3.837623,8.64193 -4.875924,10.02403 -0.640364,0.85613 -1.783874,3.01758 -2.534009,4.80662 -0.750145,1.78521 -2.593489,5.4209 -4.089196,8.07374 -1.495719,2.64903 -3.517436,6.38069 -4.491706,8.2849 -8.603756,16.85389 -8.60834,16.85774 -19.128615,19.65648 -16.548866,4.40352 -29.580297,17.19942 -32.077712,31.50028 -0.21499,1.23621 -0.805042,3.48979 -1.303604,5.00626 -2.204697,6.65711 -0.475708,26.74739 3.316176,38.48369 0.763864,2.37645 1.50028,4.66458 1.632925,5.0869 0.137219,0.42614 0.933115,2.67972 1.779302,5.00625 1.367645,3.78157 2.405947,6.01979 7.528872,16.18973 0.750134,1.48959 4.409361,7.72821 8.13263,13.86318 25.925632,42.73365 25.555143,42.09251 31.089735,53.51016 3.718685,7.65912 13.841023,33.62333 14.883897,38.1612 0.187542,0.82926 0.530594,1.76217 0.763864,2.08083 0.228709,0.31481 0.654094,1.7852 0.94226,3.27097 0.288167,1.4819 1.363062,5.88926 2.387644,9.79751 1.02458,3.90443 2.05375,8.36553 2.29159,9.90503 0.23329,1.54333 0.62665,3.37461 0.86907,4.06566 0.23785,0.69488 0.66781,3.1673 0.9514,5.49384 0.28358,2.33037 0.71355,5.10223 0.95598,6.16185 0.24242,1.0596 0.93768,7.2176 1.54144,13.6789 0.60835,6.48434 1.44996,11.45989 1.87993,11.099 2.42424,-2.03092 2.49742,-50.15473 0.0823,-53.49096 -0.23785,-0.33016 -0.6312,-2.41099 -0.87363,-4.6185 -0.8279,-7.60921 -5.6718,-27.91834 -7.885643,-33.05897 -0.494,-1.14791 -0.869073,-2.26894 -0.837041,-2.49161 0.03201,-0.22651 -0.576333,-1.88503 -1.353916,-3.69328 -0.77301,-1.80439 -1.541458,-3.80076 -1.706114,-4.43806 -0.6175,-2.40331 -4.134935,-10.61527 -6.934246,-16.17436 -1.596332,-3.17498 -3.499134,-7.11396 -4.221831,-8.75328 -0.722709,-1.63932 -2.579759,-5.27883 -4.121206,-8.08526 -1.54602,-2.81026 -3.755279,-6.84137 -4.917092,-8.96058 -1.161812,-2.11539 -3.352758,-6.10043 -4.866767,-8.85694 -10.383068,-18.87329 -10.520287,-19.14203 -14.303025,-27.48451 -2.982258,-6.57264 -3.993122,-9.82056 -6.18409,-19.87916 -0.951395,-4.3728 -1.170947,-18.85025 -0.338479,-22.33236 1.632926,-6.82218 2.506583,-9.18326 5.036007,-13.6175 1.527729,-2.67588 4.304176,-6.21942 6.16581,-7.8741 l 3.393936,-3.00606 1.157228,3.77773 c 0.640365,2.07698 1.413374,5.16367 1.719844,6.85673 0.301885,1.69307 0.946822,4.8143 1.427103,6.93352 0.484843,2.11537 1.097759,5.06001 1.372208,6.54576 0.521425,2.85249 5.25557,18.55081 6.966256,23.10405 1.06575,2.83328 8.489401,13.6981 10.259557,15.01493 0.567176,0.42615 2.652936,2.57607 4.633497,4.78359 4.811883,5.36713 17.038284,14.09737 17.038284,12.16628 0,-0.4607 -9.500266,-13.34107 -10.799297,-14.6387 -2.561457,-2.56072 -11.247557,-22.40531 -13.003983,-29.70355 -1.760999,-7.31743 -1.99428,-8.55748 -3.233853,-17.27236 -1.719832,-12.0703 -1.42252,-22.27095 0.695261,-24.04463 5.182382,-4.33442 25.321862,-0.50294 34.168042,6.49969 4.64723,3.6779 4.82563,2.80258 0.83706,-4.06183 -4.86677,-8.38473 -13.85476,-15.84803 -24.064004,-19.9828 -5.104633,-2.06931 -7.762142,-3.60113 -8.086891,-4.66843 -0.6175,-2.04626 0.224125,-7.92401 1.303593,-9.07576 0.457406,-0.48757 1.047458,-1.75449 1.312738,-2.8141 0.260741,-1.0596 2.204697,-6.77611 4.313321,-12.70761 9.710683,-27.30791 11.586033,-35.13595 11.339043,-47.29456 C 103.60055,88.10366 86.672024,73.146308 65.988244,77.83392 M 108.0465,630.29997 c -0.2653,1.16326 -0.73642,6.44978 -1.04287,11.74398 -0.46656,8.00464 -3.59062,27.98745 -5.54374,35.42389 -0.27444,1.0596 -1.07948,4.18084 -1.783873,6.93352 -1.829613,7.13315 -3.151508,11.64416 -4.057175,13.86319 -0.434531,1.0596 -1.463686,3.83146 -2.296154,6.16184 -4.32704,12.16244 -7.990851,20.94259 -11.160662,26.75891 -1.225843,2.24975 -2.22755,4.4611 -2.22755,4.91029 0,0.45302 -0.594625,1.74298 -1.326479,2.86784 -0.727271,1.12488 -2.790155,4.86038 -4.587758,8.30409 -1.793009,3.43989 -5.790726,10.37341 -8.87362,15.4027 -9.225828,15.0303 -19.704948,32.65969 -22.819862,38.40691 -1.610073,2.96384 -3.489989,6.43059 -4.176092,7.70136 -13.937098,25.70314 -14.783295,62.24038 -1.838771,79.22098 4.779862,6.27318 18.529418,15.02645 23.716373,15.0994 6.957111,0.096 12.4734,4.61851 16.987982,13.92078 1.939384,4.00424 3.97483,7.97392 4.523716,8.82238 1.111488,1.71609 2.776435,4.84501 10.035432,18.86561 7.981693,15.40652 8.073172,15.69446 8.082318,24.66273 0.0089,17.06889 -18.186365,33.69243 -33.486513,30.5904 -6.161226,-1.25156 -5.868487,-3.12124 1.62378,-10.48091 15.574596,-15.30287 0.361343,-35.89994 -21.191498,-28.69 -6.527153,2.18448 -10.598059,13.97068 -7.634081,22.12889 0.288167,0.79856 0.768448,2.66438 1.070334,4.1463 2.108623,10.50392 14.321293,22.54355 24.704361,24.35175 36.985662,6.446 50.222922,-28.92035 28.779839,-76.87909 -0.512291,-1.1479 -0.905655,-2.26894 -0.873645,-2.49161 0.03201,-0.2265 -0.576334,-1.88503 -1.353905,-3.69327 -0.773021,-1.80439 -1.564323,-3.80076 -1.751853,-4.43805 -5.804456,-19.64882 -5.790737,-18.21296 -0.169251,-20.64698 14.847327,-6.42676 18.474537,-8.88382 26.049127,-17.64862 2.34192,-2.71043 5.07719,-7.91634 4.14866,-7.90481 -0.3522,0.008 -2.3602,0.83694 -4.45969,1.8428 -13.34246,6.4037 -31.615729,8.43461 -33.756385,3.75085 -0.612904,-1.33988 0.07317,-21.25357 0.891937,-26.01028 2.854208,-16.53526 5.530019,-24.03312 13.744983,-38.50675 2.16352,-3.81227 5.470545,-9.70538 7.350475,-13.09151 1.87994,-3.38998 3.65924,-6.50737 3.95197,-6.93352 0.73185,-1.04808 -10.95482,7.62072 -12.679225,9.40594 -0.759292,0.77934 -2.867926,2.97151 -4.688394,4.86421 -10.131495,10.53081 -17.975948,26.06403 -20.601458,40.79488 -0.343052,1.90805 -0.786739,4.16164 -0.988,5.00625 -0.196676,0.84845 -0.429947,5.61284 -0.512291,10.58839 -0.08688,4.97937 -0.457395,9.05273 -0.827884,9.05273 -0.375073,0 -1.262437,0.18428 -1.971416,0.41462 -0.859916,0.27642 -1.861635,-0.63346 -2.973123,-2.69891 -0.919374,-1.71611 -2.264145,-3.5282 -2.98227,-4.03111 -6.472267,-4.50719 -11.663796,-26.23297 -9.074891,-37.96927 0.187531,-0.84845 0.635792,-3.27478 0.997146,-5.39017 1.248707,-7.30975 6.206965,-20.77751 9.92565,-26.95471 1.015449,-1.69691 1.829614,-3.2556 1.802177,-3.46677 -0.05956,-0.4415 11.389348,-20.58555 12.692952,-22.33236 0.475697,-0.6373 1.312749,-2.02324 1.861634,-3.08285 0.548874,-1.0596 1.550593,-2.96382 2.218394,-4.23458 3.060041,-5.79713 4.262997,-8.22348 7.826184,-15.79045 6.970829,-14.79611 14.783285,-36.30306 17.061145,-46.9759 0.22871,-1.05961 0.79131,-3.14044 1.25788,-4.62236 0.46654,-1.48191 1.29444,-5.2942 1.83876,-8.46918 0.99256,-5.77025 1.26243,-7.61303 2.71696,-18.48553 1.22128,-9.14486 0.42539,-46.20807 -0.99255,-46.20807 -0.37507,0 -0.89652,0.9521 -1.15724,2.11921 m 1665.5986,0.38392 c -0.059,0.95211 -0.2882,2.77186 -0.5077,4.04263 -1.1984,6.86825 -0.462,38.6219 1.0886,46.97975 0.7182,3.86218 2.3098,12.92643 2.7719,15.7866 0.4253,2.61446 0.8279,4.45343 1.8662,8.47303 0.2745,1.0596 0.7136,2.91007 0.9742,4.11172 0.2562,1.20166 1.688,5.70882 3.1745,10.01253 1.4911,4.30369 3.339,9.72842 4.1121,12.05879 0.7684,2.33036 1.9988,5.24428 2.7306,6.47281 0.7319,1.22853 1.3265,2.48777 1.3265,2.7949 0,0.30714 0.6998,1.90038 1.5506,3.53971 0.8553,1.63932 1.5871,3.15578 1.6284,3.36695 0.087,0.42997 5.6352,11.85146 6.9205,14.2471 0.4574,0.84845 2.9091,5.29419 5.4568,9.88581 2.5477,4.58781 4.6335,8.47687 4.6335,8.63427 0,0.24955 2.2641,4.38433 10.1086,18.44715 4.112,7.37119 9.7152,22.25559 11.0189,29.25821 1.857,10.00483 0.9194,27.13132 -1.7702,32.35255 -2.8176,5.47464 -5.6261,9.41362 -8.9513,12.56173 l -3.8149,3.61264 -0.59,-3.08284 c -0.3248,-1.69308 -0.9696,-4.46494 -1.4271,-6.16184 -0.462,-1.69308 -1.7336,-7.23681 -2.8267,-12.31986 -1.0932,-5.08304 -2.7765,-11.83995 -3.737,-15.01878 -0.9652,-3.17498 -1.9486,-6.64173 -2.191,-7.70133 -0.5351,-2.33421 -7.3413,-14.16649 -8.9514,-15.56011 -0.6358,-0.549 -2.1452,-2.21135 -3.3573,-3.69327 -3.1699,-3.8737 -15.0715,-14.02443 -18.3466,-15.6484 -3.3389,-1.65467 -3.7643,-0.42998 -0.8918,2.55689 8.0136,8.33096 16.1875,22.8852 20.5466,36.57947 4.4779,14.07818 7.4282,39.53946 5.1229,44.21171 -3.2385,6.56497 -23.1493,4.10407 -34.8588,-4.30752 -4.7845,-3.4399 -4.9217,-3.25177 -1.9851,2.7066 4.4413,9.02202 11.4534,14.75387 26.6483,21.79489 8.4345,3.90825 8.4712,2.93696 -1.1251,29.55382 -13.3883,37.13232 -14.5914,51.18363 -5.6902,66.36365 3.1469,5.36325 10.5935,12.22005 13.4615,12.38895 0.6723,0.042 2.8679,0.6028 4.8897,1.2516 23.3687,7.4979 49.9438,-21.64135 40.288,-44.1772 -5.1184,-11.95129 -27.0325,-11.10669 -31.9176,1.23238 -3.9521,9.99332 -1.3768,18.33964 6.9983,22.6702 8.8552,4.57627 4.2995,12.30832 -5.7359,9.73612 -24.8142,-6.36535 -35.1927,-26.20609 -25.0474,-47.90116 2.7398,-5.86238 8.1783,-16.46998 12.4322,-24.25962 1.5048,-2.75268 3.9795,-7.60537 5.4934,-10.7842 5.7678,-12.08567 6.335,-12.6001 16.7546,-15.24912 17.9028,-4.54557 29.7862,-17.46432 33.4317,-36.34913 0.9651,-5.00627 0.7639,-23.32287 -0.2972,-26.95472 -0.3111,-1.0596 -1.2214,-4.87188 -2.0309,-8.47301 -0.8051,-3.60112 -2.0492,-7.72438 -2.7582,-9.16406 -0.7135,-1.44353 -1.4865,-3.52436 -1.7197,-4.62619 -0.3843,-1.83512 -2.7674,-7.1677 -6.7332,-15.07252 -2.0949,-4.17317 -14.7877,-25.53039 -19.7598,-33.25094 -2.223,-3.45139 -4.8941,-7.6092 -5.9325,-9.24085 -3.5678,-5.58597 -11.1744,-19.57201 -11.1744,-20.54715 0,-0.53748 -0.3567,-1.30532 -0.7958,-1.70843 -1.0475,-0.95979 -6.893,-13.89775 -9.3768,-20.75448 -1.0749,-2.96382 -2.2047,-5.73954 -2.5157,-6.16184 -0.3111,-0.42231 -0.6404,-1.11721 -0.7319,-1.5395 -0.091,-0.42231 -1.4454,-4.67225 -3.0051,-9.44049 -2.5706,-7.85107 -4.1715,-13.24509 -5.2008,-17.51422 -2.296,-9.52494 -3.1879,-13.57526 -3.5584,-16.17436 -0.2425,-1.69308 -0.8691,-5.61669 -1.3952,-8.71873 -0.526,-3.09819 -1.1892,-7.77814 -1.4728,-10.39644 -0.2836,-2.6183 -0.6587,-5.96988 -0.8325,-7.45564 -0.1737,-1.48192 -0.3522,-4.34208 -0.398,-6.3538 -0.078,-3.61648 -1.8159,-5.27116 -2.0171,-1.92341 M 108.75044,1015.6399 c -19.07374,1.9541 -30.842734,18.3089 -23.15378,32.1798 1.084052,1.9541 2.021729,3.7278 2.076614,3.939 1.381364,5.0369 14.815316,14.2855 25.376756,17.472 21.67178,6.5341 37.74495,-9.4866 22.53628,-22.4629 -5.87306,-5.0063 -18.11319,-8.0315 -20.32703,-5.0216 -0.31103,0.4223 -1.51857,0.7716 -2.68495,0.7716 -1.16181,0 -3.23384,0.741 -4.60606,1.6432 -2.73069,1.8044 -10.076595,2.5184 -11.448802,1.1134 -5.511716,-5.6513 11.554012,-21.2191 26.172632,-23.8757 11.84218,-2.1538 30.26182,3.0098 38.44477,10.7764 0.50314,0.48 4.00229,2.9139 7.76672,5.4133 3.76901,2.4993 7.54716,5.0638 8.39335,5.6973 2.996,2.2382 8.42081,5.8009 11.76899,7.7204 1.86164,1.0712 4.98113,3.0483 6.92509,4.3921 1.94855,1.3476 3.83764,2.2958 4.20354,2.1039 0.36593,-0.1882 0.90109,0.1727 1.18926,0.8062 0.29274,0.6334 1.07032,1.1517 1.72899,1.1517 3.18352,0 6.15207,5.2021 5.48884,9.6248 -2.04917,13.7134 0.34762,25.6647 6.62319,33.0128 1.91195,2.2383 8.69525,8.1928 9.33104,8.1928 0.19212,0 2.30989,1.1479 4.70669,2.5531 4.18525,2.4455 10.29159,4.9909 13.11834,5.4593 0.73642,0.1228 2.57518,0.6487 4.08919,1.1671 9.36305,3.2172 39.08971,2.5837 52.54195,-1.1172 0.63578,-0.1767 1.25328,-0.2995 1.37678,-0.2764 0.35677,0.073 10.09033,-3.1328 13.06344,-4.3 4.29503,-1.6891 10.69869,-3.9581 14.22068,-5.0445 1.77017,-0.5452 4.45054,-1.6048 5.96455,-2.3573 1.514,-0.7486 2.9594,-1.363 3.21097,-1.3668 0.74557,0 5.67638,-1.6355 9.63751,-3.1826 2.01714,-0.7909 6.14749,-2.3726 9.17551,-3.5166 3.02801,-1.1403 8.39335,-3.2058 11.92908,-4.5841 3.53116,-1.3781 7.86735,-3.0252 9.63293,-3.6587 1.76556,-0.6373 5.6901,-2.1268 8.7181,-3.3169 3.02801,-1.1864 5.7084,-2.1922 5.96455,-2.2345 1.1984,-0.1919 14.33046,-4.5455 15.13548,-5.0178 2.49285,-1.4549 39.0577,-11.145 47.92218,-12.7037 0.89651,-0.1574 4.31331,-0.8369 7.59291,-1.5089 5.76785,-1.1862 23.59745,-3.2593 33.94849,-3.9466 2.77643,-0.1881 6.70096,-0.4991 8.71811,-0.6948 2.01714,-0.1958 7.79873,-0.5874 12.8439,-0.8753 5.04973,-0.2842 10.00341,-0.6028 11.0097,-0.6988 1.01085,-0.1 3.05546,-0.2265 4.54202,-0.2803 1.71984,-0.061 2.38764,-0.3685 1.83418,-0.8331 -2.35562,-1.9771 -47.34583,-2.2612 -67.39385,-0.4299 -2.26871,0.2111 -6.81074,0.595 -10.09031,0.86 -3.27959,0.261 -6.29846,0.6449 -6.70554,0.8484 -0.41167,0.2073 -2.83591,0.5221 -5.39279,0.6987 -2.55688,0.1805 -4.98571,0.4991 -5.3928,0.7141 -0.41165,0.2112 -2.52942,0.5797 -4.7021,0.8178 -5.64893,0.6142 -22.92964,4.0579 -24.81873,4.9486 -0.8782,0.4108 -2.2184,0.7486 -2.97769,0.7486 -1.32647,0 -10.84961,2.484 -14.70094,3.8354 -4.0206,1.4089 -10.17724,3.2632 -11.63636,3.5051 -0.85077,0.1382 -2.502,0.6987 -3.67295,1.2439 -1.16638,0.5413 -2.32818,1.0135 -2.57976,1.0481 -0.25157,0.031 -2.47455,0.8254 -4.93538,1.7583 -2.46083,0.9368 -4.77987,1.7007 -5.15494,1.7007 -0.37508,0 -4.76158,1.6854 -9.74727,3.7432 -10.36477,4.2807 -15.538,6.2694 -16.29271,6.2694 -0.28817,0 -2.70326,0.8292 -5.36535,1.839 -12.54658,4.7644 -24.64948,7.7704 -38.335,9.521 -5.38822,0.6873 -23.41449,0.5951 -27.52655,-0.142 -5.40651,-0.9713 -5.96455,-1.0827 -5.96455,-1.2055 0,-0.061 -0.95138,-0.2649 -2.11777,-0.4453 -7.67981,-1.194 -21.85932,-10.7689 -25.59174,-17.2724 -1.52772,-2.6683 -3.9428,-9.0566 -3.9428,-10.431 0,-1.2323 2.5889,-1.0749 9.63291,0.5875 2.01715,0.476 4.19896,0.952 4.84848,1.0557 0.64951,0.1071 3.12864,0.5529 5.50714,0.9944 21.74954,4.0234 40.343,3.7009 57.54137,-0.9982 8.2287,-2.2499 27.19723,-9.8859 28.9445,-11.6558 1.63751,-1.6547 0.42997,-2.2305 -2.53401,-1.2054 -1.40423,0.4837 -3.37564,1.0404 -4.38651,1.2361 -1.01087,0.192 -3.38478,0.7103 -5.27842,1.1442 -8.36592,1.9272 -10.61634,2.3342 -15.36877,2.7718 -2.77187,0.2573 -6.69639,0.7141 -8.71355,1.0174 -7.29557,1.0942 -29.97366,0.1151 -41.28982,-1.7814 -12.75241,-2.1384 -26.0903,-5.7933 -27.37561,-7.5056 -1.01086,-1.3474 1.05661,-5.8278 3.82847,-8.2963 5.39737,-4.799 8.10978,-8.5153 6.21612,-8.5153 -0.81419,0 -1.48656,0.2572 -1.49114,0.5759 -0.004,0.3186 -1.86163,1.2631 -4.12578,2.0962 -2.26872,0.8369 -4.1212,1.766 -4.1212,2.0693 0,0.2995 -0.82333,0.7639 -1.82962,1.0327 -1.00628,0.265 -2.35105,0.8984 -2.98226,1.4013 -3.45341,2.7373 -8.72727,4.868 -11.70497,4.7298 -4.22641,-0.192 -4.26299,-0.1996 -5.66723,-1.3168 -0.66782,-0.5298 -2.45169,-1.4781 -3.96569,-2.1076 -1.51401,-0.6297 -4.61062,-2.0694 -6.88392,-3.1981 -8.88278,-4.4189 -12.49627,-6.1542 -15.14007,-7.279 -1.51401,-0.645 -5.22812,-2.5223 -8.25614,-4.1771 -5.59404,-3.0521 -25.22122,-12.6423 -26.11773,-12.7613 -0.26987,-0.035 -1.72899,-0.5029 -3.243,-1.0365 -5.95538,-2.1001 -7.55174,-2.5723 -13.31959,-3.9351 -7.05316,-1.6702 -16.60375,-2.2307 -24.38876,-1.4321 m 1652.93776,-0.4991 c -0.1785,0.1382 -2.7581,0.4875 -5.7268,0.7717 -10.3647,0.9944 -26.3784,6.2463 -35.5356,11.648 -2.4563,1.4473 -4.7022,2.6337 -4.995,2.6337 -0.2926,0 -2.2685,0.952 -4.3863,2.1191 -6.9343,3.8124 -7.4695,4.081 -9.0933,4.5379 -0.8828,0.2496 -1.6055,0.7218 -1.6055,1.052 0,0.3263 -1.5506,1.1594 -3.4441,1.8505 -1.8891,0.691 -4.6794,1.9388 -6.1934,2.768 -1.514,0.8331 -3.5769,1.8735 -4.5877,2.315 -1.0062,0.4453 -4.5192,2.1845 -7.7988,3.866 -10.4699,5.3786 -12.2767,5.5399 -18.3464,1.647 -6.3991,-4.1002 -18.3556,-10.4425 -18.3556,-9.7322 0,1.0979 4.9629,8.83 5.6672,8.83 0.4758,0 0.6312,0.3187 0.3478,0.7064 -0.2882,0.3878 -0.206,0.8177 0.1736,0.9597 0.9149,0.3418 3.9063,4.8912 3.9063,5.9431 0,2.1192 -6.5135,4.1655 -22.4814,7.0679 -16.9834,3.0828 -23.2406,3.6894 -34.8678,3.3707 -7.9864,-0.2226 -12.1899,-0.6756 -27.769,-2.9945 -3.3346,-0.4953 -13.5391,-2.3495 -18.7262,-3.3976 -4.382,-0.8907 -3.8376,0.3493 1.3495,3.079 5.4888,2.8908 21.0999,9.1409 22.8243,9.1409 0.8005,0 2.9,0.5069 4.6701,1.1288 1.7703,0.6181 4.4003,1.3091 5.8502,1.5318 1.4454,0.2228 3.6593,0.5875 4.9217,0.814 10.1954,1.8274 31.0029,1.6316 40.3705,-0.3802 7.8855,-1.693 22.5498,-4.6107 23.2451,-4.6223 3.7142,-0.066 -3.8239,13.153 -10.7168,18.8081 -10.1636,8.3271 -19.9886,11.4022 -36.3819,11.3868 -8.4667,-0.011 -29.5438,-2.0116 -31.4236,-2.9868 -0.3797,-0.1919 -1.4089,-0.4838 -2.2963,-0.6373 -7.1218,-1.2631 -23.3413,-6.6686 -39.355,-13.1145 -6.8245,-2.7488 -12.6243,-4.9987 -12.885,-4.9987 -0.2608,0 -1.8799,-0.5182 -3.5952,-1.1555 -6.7467,-2.4954 -9.3722,-3.3708 -16.8828,-5.6282 -14.0148,-4.2116 -26.8998,-7.6899 -30.7376,-8.2964 -0.5075,-0.081 -1.2304,-0.2266 -1.61,-0.3302 -0.3751,-0.099 -0.9971,-0.2342 -1.3722,-0.2994 -0.3797,-0.061 -2.5477,-0.5298 -4.821,-1.0405 -14.6506,-3.2824 -30.4813,-5.5169 -50.4654,-7.1216 -15.3321,-1.2324 -64.352,-0.043 -66.4607,1.6124 -1.4912,1.1672 -0.4116,1.2862 15.9954,1.7469 19.4945,0.5489 23.8033,0.8753 43.0326,3.267 18.1222,2.2537 33.4681,5.1215 48.2651,9.0298 14.143,3.7317 15.6616,4.1694 23.8582,6.8913 18.6896,6.2079 30.8885,10.8111 59.6409,22.4974 18.1177,7.3636 28.1166,10.9493 34.4059,12.3314 0.7593,0.1689 5.0955,1.1517 9.6375,2.1883 33.0292,7.5363 65.2623,5.7895 79.9541,-4.3345 14.5135,-10.0009 21.6488,-25.0043 18.5204,-38.9673 -0.4346,-1.9542 -0.947,-4.2577 -1.1344,-5.1137 -0.5535,-2.5339 1.482,-5.4364 5.8822,-8.3925 5.0496,-3.3861 3.4075,-2.3035 18.813,-12.3735 7.0623,-4.6186 13.0497,-8.6075 13.3059,-8.8608 0.2515,-0.2572 3.1423,-2.1691 6.4218,-4.2538 3.2796,-2.0847 6.1019,-4.058 6.2711,-4.392 0.1647,-0.3302 0.8873,-0.6028 1.6055,-0.6028 0.7136,0 1.299,-0.3033 1.299,-0.6757 0,-0.3685 3.5312,-2.1345 7.8536,-3.9236 15.8262,-6.5496 28.6838,-4.6453 42.6712,6.3192 12.9309,10.1393 10.7352,22.1597 -2.5798,14.1358 -18.4928,-11.1412 -41.5138,3.7509 -31.4327,20.3322 7.323,12.0549 35.3618,6.3154 49.4134,-10.1123 12.2583,-14.3316 5.0999,-34.0994 -13.9418,-38.4875 -3.5586,-0.8178 -17.4499,-1.6624 -18.168,-1.1019"
       id="path0" />
    <path
       style="stroke-width:4.70491"
       fill-rule="evenodd"
       fill="#04a4dc"
       stroke="none"
       d="m 1143.255,-341.97143 c -2.7177,0.42346 -2.8525,0.53178 -0.6744,0.5482 1.4903,0.01 3.9247,-0.23635 5.4083,-0.5482 3.4527,-0.72217 -0.1079,-0.72217 -4.7339,0 m -1998.69675,8.56102 c -2.2321,0.71888 -3.44593,1.30319 -2.70414,1.29662 1.35544,-0.01 8.71259,-2.57684 7.43807,-2.59653 -0.37089,-0.003 -2.50184,0.58102 -4.73393,1.29991 m 2121.08435,4.93702 c 6.3861,4.14592 7.2088,4.51357 3.9719,1.7726 -1.4229,-1.19814 -4.0326,-2.82959 -5.8129,-3.6207 -1.9084,-0.85019 -1.1464,-0.0886 1.841,1.8481 m -101.0782,0.81737 c 3.9045,0.1313 10.2973,0.1313 14.2018,0 3.9045,-0.13459 0.7081,-0.24291 -7.1009,-0.24291 -7.8157,0 -11.0054,0.10832 -7.1009,0.24291 m -120.0611,6.09906 c -2.603,0.69263 -4.127,1.26052 -3.3785,1.26052 0.7418,0 3.4796,-0.56789 6.0894,-1.26052 2.6029,-0.69591 4.1202,-1.2638 3.3784,-1.2638 -0.7417,0 -3.4863,0.56789 -6.0893,1.2638 m -16.2316,3.62071 c -1.8612,0.51865 -2.7716,0.9421 -2.0298,0.9421 0.7485,0 2.8727,-0.42345 4.7339,-0.9421 1.8612,-0.51865 2.7784,-0.94211 2.0298,-0.94211 -0.7418,0 -2.8727,0.42346 -4.7339,0.94211 m 24.3507,7.24469 c -1.8612,0.51537 -2.7715,0.93882 -2.0298,0.93882 0.7418,0 2.8728,-0.42345 4.734,-0.93882 1.8612,-0.51865 2.7716,-0.94211 2.0298,-0.94211 -0.7418,0 -2.8728,0.42346 -4.734,0.94211 m 149.1391,5.39002 c 1.3015,0.16741 3.4324,0.16741 4.7339,0 1.3015,-0.16413 0.2428,-0.29871 -2.3669,-0.29871 -2.603,0 -3.6685,0.13458 -2.367,0.29871 m -247.89075,1.90719 c -4.43047,0.88302 -4.47094,0.91913 -0.67435,0.56132 2.2321,-0.21008 4.63278,-0.65651 5.34085,-0.99134 1.61843,-0.77141 1.15313,-0.72874 -4.6665,0.43002 m 269.20015,-0.20024 c 0.3709,0.18383 3.0548,0.65324 5.968,1.04059 2.9132,0.38734 4.7407,0.44971 4.0596,0.13786 -1.3015,-0.59743 -11.1942,-1.75947 -10.0276,-1.17845 m 200.2076,4.72038 c 0,0.18054 1.8274,0.78782 4.0595,1.35243 2.2321,0.56132 4.0529,0.87317 4.0529,0.69262 0,-0.18382 -1.8208,-0.7911 -4.0529,-1.35243 -2.2321,-0.56132 -4.0595,-0.87317 -4.0595,-0.69262 m -215.0905,3.65681 c 4.6261,0.71889 8.1799,0.71889 4.734,0 -1.4836,-0.31185 -3.918,-0.55804 -5.4083,-0.54819 -2.1782,0.0164 -2.0433,0.12473 0.6743,0.54819 m -104.1599,0.68934 c -1.4836,0.48583 -0.9374,0.5482 2.0298,0.2265 4.9699,-0.54162 6.0489,-0.91912 2.5895,-0.90599 -1.4229,0.003 -3.5066,0.31184 -4.6193,0.67949 m -17.2499,0.40376 c -2.1242,0.41689 -2.1984,1.96628 -0.1281,2.58997 0.9845,0.29872 1.1936,0.18055 0.5597,-0.31841 -0.553,-0.4333 -0.263,-1.22113 0.6339,-1.74962 1.7263,-1.01104 1.6387,-1.05372 -1.0655,-0.52194 m -267.15014,2.66547 c 1.67913,0.15757 4.11353,0.151 5.40828,-0.0131 1.29475,-0.16741 -0.0809,-0.29543 -3.06154,-0.28887 -2.97388,0.01 -4.03261,0.14444 -2.34674,0.302 m 60.8735,2.63265 c 1.67913,0.15756 4.11353,0.15099 5.40828,-0.0131 1.29475,-0.16413 -0.0809,-0.29215 -3.06154,-0.28558 -2.97388,0.007 -4.03261,0.14115 -2.34674,0.29872 m -22.34119,0.64667 c 1.30824,0.16413 3.43244,0.16413 4.74068,0 1.30149,-0.16413 0.23602,-0.302 -2.37371,-0.302 -2.60299,0 -3.66846,0.13787 -2.36697,0.302 m -1277.0015,3.29244 c 1.30149,0.16741 3.43243,0.16741 4.73393,0 1.30823,-0.16413 0.24276,-0.302 -2.36697,-0.302 -2.60299,0 -3.66846,0.13787 -2.36696,0.302 m 1728.37713,2.41927 c 1.8005,1.07998 6.8716,2.71143 6.8716,2.21248 0,-0.12474 -1.9758,-0.93226 -4.3968,-1.79559 -2.7176,-0.96836 -3.6617,-1.12921 -2.4748,-0.41689 m 8.227,3.26619 c 0,0.15756 3.1965,1.4706 7.1009,2.92151 3.9045,1.44762 8.5643,3.25962 10.3513,4.02775 3.2032,1.3754 4.1944,1.64786 4.1944,1.14234 0,-0.27902 -17.2565,-7.10354 -19.9539,-7.89136 -0.9306,-0.26918 -1.6927,-0.36109 -1.6927,-0.20024 m -92.669,3.08236 c -3.4999,1.88421 -2.131,2.08445 4.0865,0.60071 4.9363,-1.17517 4.0596,-1.25395 -1.7128,-0.151 -2.077,0.3972 -2.1377,0.31513 -0.5125,-0.6598 2.603,-1.55595 1.1127,-1.38854 -1.8612,0.21009 m 206.978,8.42642 c -9.1307,4.88779 -8.7733,5.50492 0.4518,0.79111 4.336,-2.21904 10.3378,-5.9612 9.4476,-5.89555 -0.236,0.0164 -4.6935,2.31424 -9.8994,5.10444 m -2472.164,3.75201 c 2.522,1.26708 4.8957,2.30438 5.2666,2.30438 0.3709,0 -1.3891,-1.0373 -3.9112,-2.30438 -2.5288,-1.26708 -4.8958,-2.30438 -5.2667,-2.30438 -0.3709,0 1.3892,1.0373 3.9113,2.30438 m 2427.8592,6.07609 c 2.4209,0.14443 6.3726,0.14443 8.7935,0 2.421,-0.14772 0.4384,-0.26589 -4.3967,-0.26589 -4.8351,0 -6.8177,0.11817 -4.3968,0.26589 m 140.0623,38.04529 c 0.01,1.80871 0.2698,2.4718 0.58,1.47061 0.3102,-1.0012 0.3034,-2.48165 -0.02,-3.29245 -0.317,-0.80752 -0.5732,0.01 -0.5598,1.82184 m -97.4771,1.64458 c 0,1.26709 0.2832,1.78574 0.6204,1.1522 0.3439,-0.63355 0.3439,-1.67085 0,-2.30439 -0.3372,-0.63354 -0.6204,-0.11489 -0.6204,1.15219 m -2555.9991,14.32197 c 1.7533,0.81409 3.9112,1.47389 4.8014,1.46076 0.8901,-0.01 0.3978,-0.34796 -1.0858,-0.74843 -1.4903,-0.40376 -3.6482,-1.06028 -4.8013,-1.46076 -1.1532,-0.40376 -0.6676,-0.0657 1.0857,0.74843 m 2610.1695,70.62507 c 0,1.62817 0.263,2.29454 0.58,1.48045 0.3237,-0.81408 0.3237,-2.14681 0,-2.96418 -0.317,-0.81408 -0.58,-0.14772 -0.58,1.48373 m -47.6562,61.460062 -4.6733,2.740968 5.6916,-2.603099 c 3.1222,-1.431212 5.6847,-2.688447 5.6847,-2.796773 0,-0.758279 -2.7244,0.324977 -6.703,2.658904 M -1028.9316,50.161015 c 0.02,1.450908 0.2968,1.966275 0.6204,1.145626 0.3237,-0.817366 0.3102,-2.005666 -0.027,-2.632642 -0.3439,-0.630259 -0.6069,0.03939 -0.5935,1.487016 m -60.2733,281.187235 c -1.234,1.2638 -1.9691,2.29454 -1.6319,2.29454 0.9306,0 5.0374,-4.03103 4.417,-4.33303 -0.2967,-0.14115 -1.5443,0.77469 -2.7851,2.03849 m 1.6994,25.4073 c -1.5578,1.48373 -2.5963,2.8099 -2.313,2.94777 0.2832,0.13787 1.8409,-1.07669 3.4594,-2.69829 3.6887,-3.69292 2.6906,-3.90957 -1.1464,-0.24948 m 47.7911,14.69619 -3.7629,2.03192 4.5586,-1.97612 c 4.5451,-1.96956 4.5586,-1.96956 3.5539,-0.32826 -1.1195,1.83497 -0.4316,1.68726 1.7802,-0.38406 2.313,-2.17308 -1.6926,-1.74306 -6.1298,0.65652 m 2479.8988,3.01998 c 3.6684,1.80872 6.966,3.29245 7.3436,3.29245 0.3709,0 -2.3265,-1.48373 -5.9882,-3.29245 -3.6617,-1.81199 -6.966,-3.29244 -7.3369,-3.29244 -0.3709,0 2.3198,1.48045 5.9815,3.29244 m -2470.0398,74.24578 c -2.9267,1.81856 -3.1627,2.12384 -0.8902,1.15875 2.7109,-1.15219 6.2917,-3.63055 5.2397,-3.63055 -0.209,0 -2.1714,1.1128 -4.3495,2.4718 m -18.7065,6.99521 c -6.4939,1.9433 -8.3079,2.86243 -3.0278,1.53297 4.2417,-1.06684 9.9601,-3.05609 8.7935,-3.05609 -0.3709,0 -2.9671,0.68606 -5.7657,1.52312 m 2562.4729,51.29714 c 0,0.12802 1.9826,0.93554 4.3967,1.79558 2.7244,0.96837 3.6685,1.12921 2.4816,0.41689 -1.8005,-1.07997 -6.8783,-2.71142 -6.8783,-2.21247 m -70.3414,37.55947 c 0,0.11161 1.9759,1.07669 4.3968,2.14026 l 4.3967,1.93345 -3.9719,-2.14026 c -3.7089,-1.99582 -4.8216,-2.44225 -4.8216,-1.93345 m -2473.8566,10.12353 c 1.3015,0.16741 3.4324,0.16741 4.7339,0 1.3015,-0.16413 0.2428,-0.29872 -2.3669,-0.29872 -2.603,0 -3.6685,0.13459 -2.367,0.29872 m -28.5722,6.44702 c -3.0683,1.6216 -5.5836,3.15129 -5.5836,3.40077 0,0.24948 0.2023,0.33154 0.4451,0.18054 0.2495,-0.151 3.0615,-1.68069 6.2579,-3.40077 3.2032,-1.72336 5.5095,-3.12831 5.1386,-3.12831 -0.3709,0 -3.1897,1.32617 -6.258,2.94777 m 21.6938,6.04654 -7.6606,3.72903 8.1125,-3.5255 c 4.4641,-1.93674 8.3754,-3.61414 8.6856,-3.72903 0.3102,-0.11161 0.1011,-0.20353 -0.4586,-0.20353 -0.5597,0 -4.4709,1.68069 -8.6789,3.72903 m 122.87994,9.38495 c 1.8612,0.73858 3.99215,1.34586 4.73393,1.34915 1.44985,0.007 -0.99803,-0.906 -5.40828,-2.01552 -1.80051,-0.453 -1.57123,-0.22978 0.67435,0.66637 m -82.52011,2.0943 c 0,0.17397 2.82553,1.7726 6.28494,3.55505 3.45267,1.77916 5.63081,2.65562 4.84183,1.94986 -1.4566,-1.30647 -11.12677,-6.08922 -11.12677,-5.50491 m 96.04756,1.47716 c 0,0.44644 9.71737,3.16771 10.29731,2.88541 0.27648,-0.13131 -1.93539,-0.90272 -4.90252,-1.71352 -2.96714,-0.81408 -5.39479,-1.3393 -5.39479,-1.17189 m -10.82331,5.8857 c 0,0.12802 1.98259,0.93554 4.39676,1.79558 2.72437,0.97165 3.66846,1.12921 2.4816,0.41689 -1.80725,-1.07669 -6.87836,-2.71143 -6.87836,-2.21247 m 61.2916,2.87227 c -0.98455,1.24739 0.93734,3.0003 3.73589,3.40405 1.06547,0.15429 0.7755,-0.15428 -0.64063,-0.68606 -1.7061,-0.63682 -2.32651,-1.44434 -1.82074,-2.37988 0.89014,-1.65771 -0.0405,-1.90391 -1.27452,-0.33811 m 384.78362,0.70576 c 1.67239,0.15428 4.41025,0.15428 6.08263,0 1.67913,-0.15756 0.30346,-0.28559 -3.04131,-0.28559 -3.35152,0 -4.72045,0.12803 -3.04132,0.28559 m 21.61289,0.01 c 2.40069,0.14443 6.66257,0.14771 9.46787,0.003 2.80529,-0.14115 0.84293,-0.25932 -4.36979,-0.26261 -5.20597,-0.003 -7.49876,0.11161 -5.09808,0.25933 m 1662.90461,5.44911 c -2.7851,0.43658 -2.9065,0.53834 -0.6744,0.5843 1.4836,0.0295 3.6145,-0.23306 4.7339,-0.5843 2.367,-0.74515 0.7216,-0.74515 -4.0595,0 m -1719.35437,1.34915 c -2.2793,0.37749 -1.18011,0.43658 3.38523,0.18054 3.71566,-0.21009 7.01323,-0.48911 7.32343,-0.62369 1.06547,-0.46285 -7.33017,-0.1149 -10.70866,0.44315 m 1662.87757,3.05609 c 1.3015,0.16742 3.4324,0.16742 4.7339,0 1.3015,-0.16413 0.2361,-0.29871 -2.3669,-0.29871 -2.603,0 -3.6685,0.13458 -2.367,0.29871 m -1813.0349,9.7526 c -1.8612,0.51865 -2.77157,0.9421 -2.02979,0.9421 0.74853,0 2.87947,-0.42345 4.73393,-0.9421 1.8612,-0.51537 2.77832,-0.93882 2.02979,-0.93882 -0.74178,0 -2.87273,0.42345 -4.73393,0.93882 m 1876.889,9.7132 -5.3476,2.80006 5.7455,-2.6031 c 5.3476,-2.42256 6.3726,-2.99373 5.3476,-2.99373 -0.2158,0 -2.8053,1.25723 -5.7455,2.79677 m -2060.86494,0.67293 c 0,0.39063 11.80111,4.43151 12.94076,4.43151 0.54623,0 -1.37567,-0.8305 -4.28211,-1.8481 -6.46701,-2.26499 -8.65865,-2.91823 -8.65865,-2.58341 m 183.63877,2.17308 c -5.24644,1.38526 -4.65301,1.86452 0.67434,0.54491 5.10483,-1.2638 6.00171,-1.58877 4.28887,-1.55266 -0.6811,0.0131 -2.91319,0.46941 -4.96321,1.00775 m -230.88367,1.27037 c 0,0.36108 0.86991,1.39838 1.92864,2.30438 1.06547,0.906 1.93538,1.34915 1.93538,0.98806 0,-0.36108 -0.86991,-1.39838 -1.93538,-2.30438 -1.05873,-0.906 -1.92864,-1.34915 -1.92864,-0.98806 m 62.12779,1.30975 c 0,0.453 8.28101,2.44882 8.90141,2.15011 0.29671,-0.14444 -1.59147,-0.755 -4.18097,-1.35572 -2.59624,-0.604 -4.72044,-0.95852 -4.72044,-0.79439 m 94.01776,0.33483 c -1.7061,0.3578 -1.95561,0.56789 -0.67435,0.56789 1.11268,0 3.24362,-0.25604 4.73393,-0.56789 1.7061,-0.35452 1.95561,-0.56461 0.67435,-0.56461 -1.11942,0 -3.24362,0.25605 -4.73393,0.56461 m 1797.13379,4.94031 c 1.8612,0.51865 3.9921,0.9421 4.7339,0.9421 0.7485,0 -0.1686,-0.42345 -2.0231,-0.9421 -1.8612,-0.51865 -3.9921,-0.94211 -4.7406,-0.94211 -0.7418,0 0.1753,0.42346 2.0298,0.94211 m -1942.55719,1.85138 c 0,0.11489 1.98259,1.07669 4.39676,2.14025 l 4.39676,1.93345 -3.97192,-2.14025 c -3.70218,-1.99253 -4.8216,-2.44225 -4.8216,-1.93345 m 13.52745,6.04983 c 2.52206,0.90599 4.92275,1.64458 5.3341,1.64458 1.28126,-0.007 -7.28297,-3.23992 -8.63841,-3.26619 -0.70133,-0.0131 0.78224,0.71561 3.30431,1.62161 m 2040.29734,7.36943 c 1.3015,0.16413 3.4324,0.16413 4.7339,0 1.3015,-0.16742 0.236,-0.302 -2.367,-0.302 -2.6029,0 -3.6684,0.13458 -2.3669,0.302"
       id="path1" />
    <path
       fill-rule="evenodd"
       fill="#08acdc"
       stroke="none"
       d=""
       id="path2" />
    <path
       fill-rule="evenodd"
       fill="#08acdc"
       stroke="none"
       d=""
       id="path3" />
    <path
       fill-rule="evenodd"
       fill="#08acdc"
       stroke="none"
       d=""
       id="path4" />
    <path
       fill-rule="evenodd"
       fill="#08acdc"
       stroke="none"
       d=""
       id="path5" />
    <path
       fill-rule="evenodd"
       fill="#08acdc"
       stroke="none"
       d=""
       id="path6" />
    <path
       fill-rule="evenodd"
       fill="#08acdc"
       stroke="none"
       d=""
       id="path7" />
    <path
       fill-rule="evenodd"
       fill="#08acdc"
       stroke="none"
       d=""
       id="path8" />
  </g>
</svg>
